# xmcd
#
# Track frame offsets:
#	150
#	15154
#	29523
#	41004
#	53528
#	66373
#	82478
#	95866
#	110532
#	123812
#	134896
#	151020
#
# Disc length: 2171 seconds
#
# Revision: 1
# Processed by: cddbd v1.4PL0 Copyright (c) Steve Scherf et al.
# Submitted via: audiograbber 1.81.03
#
DISCID=a208790c
DTITLE=Mario Levesque - Le Party
DYEAR=1900
DGENRE=Accordeon
TTITLE0=You cheatin heart
TTITLE1=I don't care if you love me anymore
TTITLE2=Act naturally
TTITLE3=Plus fort que tout
TTITLE4=I want you I need you
TTITLE5=Aide-moi a passer la nuit 
TTITLE6=Danser pour oublier
TTITLE7=La valse de l'espoir
TTITLE8=Reel a Brian
TTITLE9=Reel neigette
TTITLE10=Valse Germaine
TTITLE11=Le petit bal a l'huile
EXTD=
EXTT0=
EXTT1=
EXTT2=
EXTT3=
EXTT4=
EXTT5=
EXTT6=
EXTT7=
EXTT8=
EXTT9=
EXTT10=
EXTT11=
PLAYORDER=
